<svg xmlns="http://www.w3.org/2000/svg" viewBox="0 0 256 256" width="256" height="256">
  <defs>
    <linearGradient id="bgGrad" x1="0%" y1="0%" x2="100%" y2="100%">
      <stop offset="0%" style="stop-color:#14b8a6;stop-opacity:1" />
      <stop offset="50%" style="stop-color:#0891b2;stop-opacity:1" />
      <stop offset="100%" style="stop-color:#0e7490;stop-opacity:1" />
    </linearGradient>
    <linearGradient id="iconGrad" x1="0%" y1="0%" x2="100%" y2="100%">
      <stop offset="0%" style="stop-color:#ffffff;stop-opacity:1" />
      <stop offset="100%" style="stop-color:#e0f2f1;stop-opacity:1" />
    </linearGradient>
  </defs>
  <circle cx="128" cy="128" r="120" fill="url(#bgGrad)"/>
  <circle cx="128" cy="128" r="100" fill="none" stroke="white" stroke-width="3" opacity="0.3"/>
  <g fill="url(#iconGrad)" stroke="white" stroke-width="2">
    <rect x="112" y="60" width="32" height="136" rx="8" />
    <rect x="60" y="112" width="136" height="32" rx="8" />
  </g>
  <g fill="white" opacity="0.9">
    <rect x="45" y="165" width="18" height="50" rx="4" />
    <rect x="70" y="145" width="18" height="70" rx="4" />
    <rect x="95" y="130" width="18" height="85" rx="4" />
    <rect x="120" y="120" width="18" height="95" rx="4" />
    <rect x="145" y="140" width="18" height="75" rx="4" />
    <rect x="170" y="155" width="18" height="60" rx="4" />
    <rect x="195" y="175" width="18" height="40" rx="4" />
  </g>
  <g fill="white" opacity="0.6">
    <circle cx="75" cy="85" r="12" />
    <circle cx="145" cy="75" r="10" />
    <circle cx="185" cy="95" r="8" />
  </g>
  <circle cx="128" cy="128" r="118" fill="none" stroke="white" stroke-width="2" opacity="0.5"/>
</svg>
